<svg xmlns="http://www.w3.org/2000/svg" viewBox="0 0 200 200"><path d="M 94.07 75.05 L 98.12 97.01 L 120.07 101.05 L 98.12 105.10 L 94.07 127.05 L 90.03 105.10 L 68.07 101.05 L 90.03 97.01 Z" fill="#BE7C6C" opacity="0.91" /><path d="M 61.97 43.19 L 63.84 53.32 L 73.97 55.19 L 63.84 57.06 L 61.97 67.19 L 60.11 57.06 L 49.97 55.19 L 60.11 53.32 Z" fill="#BE7C6C" opacity="0.91" /><path d="M 142.64 40.82 L 144.04 48.42 L 151.64 49.82 L 144.04 51.22 L 142.64 58.82 L 141.24 51.22 L 133.64 49.82 L 141.24 48.42 Z" fill="#BE7C6C" opacity="0.92" /><path d="M 155.35 115.69 L 157.69 128.36 L 170.35 130.69 L 157.69 133.03 L 155.35 145.69 L 153.02 133.03 L 140.35 130.69 L 153.02 128.36 Z" fill="#BE7C6C" opacity="0.83" /></svg>